<svg transform="scale(1)" version="1.1" id="Layer_1" xmlns="http://www.w3.org/2000/svg" xmlns:xlink="http://www.w3.org/1999/xlink" x="0px" y="0px" viewBox="0 0 500 500" xml:space="preserve" class="show_show__wrapper__graphic__5Waiy "><title>React</title><style type="text/css">
	.st0{fill:#f7ff00;}
	.st1{fill:#adc7cd;}
	.st2{opacity:0.15;fill:#091114;enable-background:new    ;}
	.st3{opacity:0.7;fill:#091114;enable-background:new    ;}
	.st4{fill:#8CCE46;}
	.st5{fill:#091114;}
	.st6{opacity:0.3;fill:#091114;enable-background:new    ;}
	.st7{opacity:0.1;fill:#091114;enable-background:new    ;}
	.st8{fill:none;}
	.st9{fill:#F2AE16;}
	.st10{fill:#FFD008;}
	.st11{fill:#F7931E;}
	.st12{fill:#FF7B61;}
	.st13{fill:#981E61;}
	.st14{opacity:0.5;fill:#091114;enable-background:new    ;}
	.st15{fill:#FFFFFF;}
</style><path class="st0" id="Base" d="M471.6,280.8c-48.3,25.9-190.4,107.9-235.2,133.8c-8.4,4.9-18.9,4.9-27.3-0.1L38.8,315.1
	c-6.8-4-4.6-11.4,2.2-15.3l237.7-138.1c2.5-1.4,5.5-1.4,8,0l185,105.2c3.8,2.1,5.2,7,3,10.8C474,279,472.9,280.1,471.6,280.8z"></path><g id="Plant"><path class="st1" d="M266.7,170.8c0,0-4,27.6,13.4,27.7c16.7,0.1,12.4-28.1,12.4-28.1S280.3,159.9,266.7,170.8z"></path><path class="st2" d="M266.7,170.8c0,0-4,27.6,13.4,27.7c16.7,0.1,12.4-28.1,12.4-28.1S280.3,159.9,266.7,170.8z"></path><ellipse class="st1" cx="279.5" cy="170.8" rx="12.9" ry="5.3"></ellipse><ellipse class="st3" cx="279.5" cy="170.8" rx="12.9" ry="5.3"></ellipse><path class="st4" d="M259.3,130.5c0,0-9-2.1-5.5-9.6C253.8,120.8,259.9,122.1,259.3,130.5z"></path><path class="st4" d="M264.7,138c0,0-1.2-6.4,3.7-9C268.5,129,272.5,135.7,264.7,138z"></path><path class="st4" d="M270.3,147.8c0,0-1.5-7.6,4.5-10.7C274.8,137.1,279.6,145.1,270.3,147.8z"></path><path class="st4" d="M274.7,158.4c0,0-1.5-7.6,4.5-10.7C279.1,147.7,283.9,155.7,274.7,158.4z"></path><path class="st4" d="M264.2,138.2c0,0-3.2-5.7-8.6-4.4C255.6,133.7,256.8,141.4,264.2,138.2z"></path><path class="st4" d="M269.9,148c0,0-4-6.6-10.5-4.9C259.3,143.1,261.2,152.2,269.9,148z"></path><path class="st4" d="M274.2,158.5c0,0-4.8-6.1-11-3.7C263.2,154.8,266,163.7,274.2,158.5z"></path><path class="st5" d="M277.5,176.2h0.1c0.4,0,0.8,0,1.3,0.1c0,0,0-0.1,0-0.1c-2-17.1-8.7-33.2-19.3-46.7c-0.6-0.7-1.5,0.3-1,1
		C269,143.7,275.6,159.5,277.5,176.2L277.5,176.2z"></path><path class="st4" d="M298.7,142.6c0,0,7.7-1.8,4.7-8.2C303.5,134.4,298.2,135.4,298.7,142.6z"></path><path class="st4" d="M294.1,149.1c0,0,1.1-5.5-3.2-7.7C290.9,141.4,287.4,147.1,294.1,149.1z"></path><path class="st4" d="M289.3,157.5c0,0,1.3-6.6-3.8-9.2C285.4,148.3,281.3,155.2,289.3,157.5z"></path><path class="st4" d="M285.5,166.6c0,0,1.3-6.5-3.8-9.2C281.7,157.4,277.6,164.3,285.5,166.6z"></path><path class="st4" d="M294.5,149.2c0,0,2.7-4.9,7.4-3.8C301.9,145.4,300.9,152,294.5,149.2z"></path><path class="st4" d="M289.7,157.7c0,0,3.5-5.7,9-4.2C298.7,153.5,297.1,161.3,289.7,157.7z"></path><path class="st4" d="M286,166.7c0,0,4.1-5.3,9.4-3.2C295.4,163.5,293,171.1,286,166.7z"></path><path class="st5" d="M298.5,141.8c-7.9,10-13.3,21.8-15.7,34.3c0.4-0.1,0.8-0.1,1.2-0.2c2.4-12.2,7.6-23.6,15.3-33.3
		C299.8,142.1,299,141.2,298.5,141.8z"></path></g><g id="Revenue"><polygon class="st4" points="411.8,219.7 411.9,285 272.4,368.5 272.4,297.9 	"></polygon><polygon class="st6" points="411.8,219.7 411.9,285 272.4,368.5 272.4,297.9 	"></polygon><polygon class="st4" points="193.4,257 193.4,322.9 272.4,368.5 272.4,297.9 	"></polygon><polyline class="st4" points="410.6,221.1 271.6,306.4 193.4,260.8 260.8,234.9 	"></polyline><polyline class="st7" points="410.6,221.1 271.6,306.4 193.4,260.8 260.8,234.9 	"></polyline><path class="st4" d="M184.6,255.7l77.5,45.3c0,0,32.6-4,67.3-24s82.4-57.3,82.4-57.3L340.6,178l-100.8,60.2
		C239.8,238.2,212,251.9,184.6,255.7z"></path><path class="st5" d="M263.4,298.5l-0.2-0.1l-71.1-41.6l1.2-0.3c27.6-6.2,52.8-18.5,53-18.7l91.3-54.6l65.2,38.3l-0.6,0.5
		c-0.4,0.3-43.5,33.9-74.6,51.8s-63.9,24.6-64.2,24.6L263.4,298.5z M194.8,257.2l68.8,40.2c2.7-0.6,34-7.3,63.7-24.5
		c29-16.7,68.6-47.2,73.9-51.3l-63.5-37.2l-90.8,54.3C246.5,238.9,222,250.9,194.8,257.2L194.8,257.2z"></path><ellipse class="st6" cx="306.3" cy="242" rx="35.9" ry="21.8"></ellipse><line class="st8" x1="411.8" y1="231.1" x2="272.4" y2="317.6"></line><path class="st5" d="M411.8,231.1c-44.3,28.3-94.4,59.4-139.4,86.5C316.7,289.3,366.8,258.2,411.8,231.1L411.8,231.1z"></path><line class="st8" x1="411.8" y1="238.2" x2="272.4" y2="324.8"></line><path class="st5" d="M411.8,238.2c-44.3,28.3-94.4,59.4-139.4,86.5C316.7,296.5,366.8,265.4,411.8,238.2z"></path><line class="st8" x1="413.2" y1="246.2" x2="273.8" y2="332.7"></line><path class="st5" d="M413.2,246.2c-44.3,28.3-94.4,59.4-139.4,86.5C318.1,304.5,368.2,273.4,413.2,246.2z"></path><line class="st8" x1="413.2" y1="255.8" x2="273.8" y2="342.4"></line><path class="st5" d="M413.2,255.8c-44.3,28.3-94.4,59.4-139.4,86.5C318.1,314.1,368.2,283,413.2,255.8z"></path><line class="st8" x1="411.8" y1="266.6" x2="272.4" y2="353.1"></line><path class="st5" d="M411.8,266.6c-44.3,28.3-94.4,59.4-139.4,86.5C316.7,324.8,366.8,293.7,411.8,266.6z"></path><line class="st8" x1="411.8" y1="273.7" x2="272.4" y2="360.2"></line><path class="st5" d="M411.8,273.7c-44.3,28.3-94.4,59.4-139.4,86.5C316.8,332,366.8,300.9,411.8,273.7L411.8,273.7z"></path><line class="st8" x1="194.6" y1="273.8" x2="269.8" y2="315.9"></line><path class="st5" d="M194.6,273.8c24.5,13,51.3,28,75.2,42.1C245.3,302.9,218.5,287.9,194.6,273.8z"></path><line class="st8" x1="194.6" y1="282.4" x2="269.8" y2="324.4"></line><path class="st5" d="M194.6,282.4c24.5,13,51.3,28,75.2,42.1C245.3,311.4,218.5,296.4,194.6,282.4z"></path><line class="st8" x1="195.8" y1="291.7" x2="270.9" y2="333.8"></line><path class="st5" d="M195.8,291.7c24.5,13,51.3,28,75.2,42.1C246.4,320.8,219.6,305.8,195.8,291.7z"></path><line class="st8" x1="195.8" y1="300.2" x2="270.9" y2="342.3"></line><path class="st5" d="M195.8,300.2c24.5,13,51.3,28,75.2,42.1C246.4,329.3,219.6,314.3,195.8,300.2L195.8,300.2z"></path><line class="st8" x1="195.3" y1="306.4" x2="270.5" y2="348.5"></line><path class="st5" d="M195.3,306.4c24.5,13,51.3,28,75.2,42.1C246,335.5,219.2,320.5,195.3,306.4L195.3,306.4z"></path><line class="st8" x1="195.3" y1="315" x2="270.5" y2="357"></line><path class="st5" d="M195.3,315c24.5,13,51.3,28,75.2,42.1C246,344.1,219.2,329.1,195.3,315L195.3,315z"></path></g><g id="Coin_stack"><path class="st9" d="M86.5,317.9c-0.8-5.7-0.2-11.4,1.7-16.8c3.2-8.7,17.3,14.6,17.3,14.6"></path><ellipse class="st9" transform="matrix(4.100381e-02 -0.9992 0.9992 4.100381e-02 -197.3331 427.0081)" cx="123.8" cy="316.3" rx="25.7" ry="37.5"></ellipse><ellipse class="st10" transform="matrix(4.100371e-02 -0.9992 0.9992 4.100371e-02 -188.9014 420.0901)" cx="124.4" cy="308.5" rx="25.7" ry="37.5"></ellipse><path class="st11" d="M125.4,331.5c-2.1,0-4.3-0.1-6.4-0.4c-10.7-1.4-20-6.4-24.7-13.3c-2.9-4-3.9-9-2.8-13.8
		c3-12.5,20.1-20.6,38.2-18.2l0,0c10.7,1.4,20,6.4,24.7,13.3c2.9,4,3.9,9,2.9,13.8C154.7,323.9,141,331.5,125.4,331.5z M123.3,286.4
		c-15.1,0-28.3,7.3-30.8,17.9c-1,4.5,0,9.3,2.7,13c4.6,6.6,13.5,11.5,24,12.9c17.6,2.4,34.3-5.5,37.1-17.4c1-4.5,0-9.3-2.7-13
		c-4.6-6.6-13.5-11.5-24-12.9l0,0C127.5,286.5,125.4,286.4,123.3,286.4z"></path><path class="st11" d="M125.1,297.6c-3.7,2-4.8,5.4-4.8,8.6c-3.6,0.5-7.2,1-10.9,1.6c0-0.7,0.1-1.5,0.2-2.2c0.6-2.2-4-2.6-4.6-0.4
		c-0.2,1.1-0.3,2.2-0.1,3.3l-6,0.9c-2.9,0.5-2.2,3.9,0.7,3.4c2.1-0.3,4.2-0.7,6.4-1c2.7,5.6,8.9,8.5,14.9,6.9
		c5.2-1.4,4.9-5.2,4.4-8.6c0-0.3-0.1-0.7-0.2-1c3.4-0.5,6.9-0.9,10.4-1.4c-0.1,1.5-0.3,3.1-0.7,4.6c-0.6,2.2,4,2.6,4.6,0.4
		c0.5-1.8,0.7-3.7,0.7-5.5l3.6-0.4c2.9-0.3,2.2-3.8-0.7-3.4l-3.3,0.4c-0.5-1.9-1.5-3.7-3-5.1C133.7,296,128.9,295.6,125.1,297.6z
		 M121.1,312.2c-1.2,3.2-4.4,4-7.7,2c-1.2-0.7-2.3-1.7-3-2.9c3.5-0.5,6.9-1,10.4-1.5C121.1,310.5,121.1,311.3,121.1,312.2
		L121.1,312.2z M133.1,300.8c1.1,0.8,1.9,2.1,2.1,3.4c-3.5,0.4-6.9,0.9-10.4,1.4c0-0.3,0-0.6,0.1-0.9
		C125.4,302,128.8,297.7,133.1,300.8L133.1,300.8z"></path><path class="st9" d="M86.2,299.6c-0.8-5.7-0.2-11.5,1.8-16.8c3.2-8.8,17.3,14.6,17.3,14.6"></path><ellipse class="st9" transform="matrix(4.100371e-02 -0.9992 0.9992 4.100371e-02 -179.2737 409.2653)" cx="123.6" cy="298" rx="25.7" ry="37.5"></ellipse><ellipse class="st10" transform="matrix(4.100381e-02 -0.9992 0.9992 4.100381e-02 -170.842 402.3473)" cx="124.2" cy="290.2" rx="25.7" ry="37.5"></ellipse><path class="st11" d="M125.2,313.2c-2.1,0-4.3-0.1-6.4-0.4c-10.7-1.4-20-6.4-24.7-13.3c-2.9-4-3.9-9-2.8-13.8
		c3-12.5,20.1-20.6,38.2-18.2l0,0c10.7,1.4,20,6.4,24.7,13.3c2.9,4,4,9,2.9,13.8C154.4,305.6,140.8,313.2,125.2,313.2z M123.1,268.1
		c-15.1,0-28.3,7.3-30.9,17.9c-1,4.5,0,9.3,2.7,13.1c4.6,6.6,13.5,11.5,24,12.9c17.6,2.4,34.3-5.5,37.1-17.4c1-4.5,0-9.3-2.7-13
		c-4.6-6.6-13.5-11.5-24-12.9C127.3,268.3,125.2,268.1,123.1,268.1L123.1,268.1z"></path><path class="st11" d="M124.9,279.3c-3.7,2-4.8,5.4-4.8,8.6c-3.6,0.5-7.2,1-10.9,1.6c0-0.7,0.1-1.5,0.2-2.2c0.6-2.2-4-2.6-4.6-0.4
		c-0.3,1.1-0.3,2.2-0.1,3.3c-2,0.3-4,0.6-6,0.9c-2.9,0.5-2.2,3.9,0.7,3.4c2.1-0.4,4.2-0.7,6.4-1c2.7,5.6,8.9,8.5,14.9,6.9
		c5.1-1.4,4.9-5.2,4.4-8.6c0-0.3-0.1-0.7-0.2-1c3.5-0.5,6.9-0.9,10.4-1.4c-0.1,1.5-0.3,3.1-0.7,4.6c-0.6,2.2,4,2.6,4.6,0.4
		c0.5-1.8,0.7-3.7,0.7-5.5l3.6-0.4c2.9-0.4,2.2-3.8-0.7-3.4l-3.3,0.4c-0.5-1.9-1.5-3.7-3-5.1C133.5,277.7,128.6,277.4,124.9,279.3z
		 M120.9,293.9c-1.2,3.2-4.4,4-7.7,2c-1.2-0.7-2.3-1.7-3-2.9c3.5-0.5,7-1,10.4-1.5C120.9,292.2,120.9,293.1,120.9,293.9L120.9,293.9
		z M132.9,282.6c1.1,0.9,1.8,2.1,2.1,3.4c-3.5,0.4-6.9,0.9-10.4,1.4c0-0.3,0-0.6,0.1-0.9C125.2,283.7,128.6,279.4,132.9,282.6
		L132.9,282.6z"></path><path class="st9" d="M83.6,284c-0.8-5.7-0.2-11.5,1.7-16.8c3.2-8.8,17.3,14.6,17.3,14.6"></path><ellipse class="st9" transform="matrix(4.100381e-02 -0.9992 0.9992 4.100381e-02 -166.1596 391.6207)" cx="120.9" cy="282.4" rx="25.7" ry="37.5"></ellipse><ellipse class="st10" transform="matrix(4.100371e-02 -0.9992 0.9992 4.100371e-02 -157.7283 384.7224)" cx="121.6" cy="274.5" rx="25.7" ry="37.5"></ellipse><path class="st11" d="M122.6,297.6c-2.1,0-4.3-0.1-6.4-0.4c-10.7-1.4-20-6.4-24.7-13.3c-2.9-4-3.9-9-2.8-13.8
		c3-12.5,20.1-20.6,38.2-18.2l0,0c10.7,1.4,20,6.4,24.7,13.3c2.9,4,4,9,2.8,13.9C151.8,289.9,138.2,297.6,122.6,297.6z M120.5,252.4
		c-15.1,0-28.3,7.3-30.9,17.8c-1,4.5,0,9.3,2.7,13c4.6,6.6,13.5,11.5,24,12.9c17.6,2.4,34.3-5.5,37.1-17.4c1-4.5,0-9.3-2.7-13
		c-4.6-6.6-13.5-11.4-24-12.9C124.7,252.6,122.6,252.4,120.5,252.4L120.5,252.4z"></path><path class="st11" d="M122.2,263.7c-3.7,2-4.8,5.4-4.8,8.6c-3.6,0.5-7.3,1-10.9,1.6c0-0.7,0.1-1.5,0.2-2.2c0.6-2.2-4-2.6-4.6-0.4
		c-0.3,1.1-0.3,2.2-0.1,3.3l-6,0.9c-2.9,0.5-2.2,3.9,0.7,3.4c2.1-0.3,4.2-0.7,6.4-1c2.7,5.6,8.9,8.5,14.9,6.9
		c5.2-1.4,4.9-5.2,4.4-8.6c-0.1-0.3-0.1-0.7-0.2-1c3.5-0.5,6.9-0.9,10.4-1.4c-0.1,1.5-0.3,3.1-0.7,4.6c-0.6,2.2,4,2.6,4.6,0.4
		c0.5-1.8,0.7-3.7,0.7-5.5l3.6-0.4c2.9-0.3,2.2-3.8-0.7-3.4l-3.3,0.4c-0.5-1.9-1.5-3.7-3-5.1C130.9,262,126,261.7,122.2,263.7z
		 M118.2,278.3c-1.2,3.2-4.4,4-7.7,2c-1.2-0.7-2.3-1.7-3-2.9c3.5-0.5,7-1,10.4-1.5C118.2,276.6,118.3,277.4,118.2,278.3L118.2,278.3
		z M130.3,266.9c1.1,0.8,1.9,2.1,2.1,3.4c-3.5,0.4-6.9,0.9-10.4,1.4c0-0.3,0-0.6,0.1-0.9C122.6,268.1,125.9,263.8,130.3,266.9
		L130.3,266.9z"></path></g><path class="st1" id="Arrow" d="M203.4,111.3l-28.8,12.9l11.5,6.6l-30.1,61.9L121.8,181l-23.8,59.1c4.6,2.7,9.2,5.4,13.8,8.2
	l18.9-47.9l33.7,10.7l33.3-74l13.1,7.9L203.4,111.3z"></path><g id="Character"><path class="st11" d="M344.4,162.4c0,0,4.2,1.5,4.6,1.5s7.8-0.1,7.3,4.2s-12,3.2-12,3.2l-5.3-5.6"></path><path class="st11" d="M359.2,167.6l-5.9-2c0,0-7.1-1.6-7.8,0s1.3,6.6,2,6.8l5.4,1.2l5.3,0.6"></path><path class="st12" d="M312.8,224.7c0,0-36.4,23.9-40,24.2s-39.5,14.4-39.5,14.4s1.8,9,0.8,13.2c0,0,65.6-16.5,73.9-19.4
		s27.2-21.6,22.4-26.7S312.8,224.7,312.8,224.7z"></path><path class="st6" d="M312.8,224.7c0,0-36.4,23.9-40,24.2s-39.5,14.4-39.5,14.4s1.8,9,0.8,13.2c0,0,65.6-16.5,73.9-19.4
		s27.2-21.6,22.4-26.7S312.8,224.7,312.8,224.7z"></path><path class="st1" d="M333.9,187c-3-2.8-8-15.4-6.7-18.3s9.2,1.9,9.2,1.9l8-8.3c0,0-11.2-9.2-16.5-10.7s-9.5,0.2-11.2,6.7
		s3.9,29,3.2,33.9s-7.1,32.5-7.1,32.5c5.1,8.8,26,13.4,28.9,12.6s17.8-33.9,17.8-33.9s27.8-18,24.1-26.4s-19.7-10.8-23-11.2
		s-5.8,10.2-5.8,10.2s10.5,3,11.5,4.3s-3.6,4.8-12.4,6.7s-10.7,0.8-10.7,0.8"></path><path class="st13" d="M234.7,262.3l-3.8-0.8c-0.1-4.9-1.2-10.1-5.3-9.8c-7,0.5-2.6,15.5-2.8,17.1s-0.9,6.3,0.1,7.8s4,3,6.3,1.5
		l7.8-3.1L234.7,262.3z"></path><path class="st14" d="M234.7,262.3l-3.8-0.8c-0.1-4.9-1.2-10.1-5.3-9.8c-7,0.5-2.6,15.5-2.8,17.1s-0.9,6.3,0.1,7.8s4,3,6.3,1.5
		l7.8-3.1L234.7,262.3z"></path><path class="st13" d="M220.5,266.2c0,0-2.5,1.7-4.2-0.3s-2.7-18.7-3.9-22.1s-1.4-9.2,2.7-9.6s4.6,1.6,5.5,4.3s4.1,11,7.2,12
		c2.5,0.8,5.1,1.5,7.7,2l-0.7,9.8L220.5,266.2z"></path><path class="st5" d="M336.9,191.5c0,0-7.1,32.4-7.5,33.2s-6.8,4.6-6.8,4.6l-1.4-5.8l13.7-32.7L336.9,191.5z"></path><path class="st5" d="M346.4,188.1c0,0-9.3,8.1-8.9,7.5s-2-3.7-2-3.7l-4.2,1.3l4.8-8.4"></path><path class="st11" d="M331.5,173.1c0,0-3.5,13.1,2.3,15.9s9.9-1.4,11.7-5.3s1.1-13.1-6.5-14C332.5,169,331.5,173.1,331.5,173.1z"></path><path class="st5" d="M330,170.8c-0.8,1-0.6,2.5,0.4,3.3c0.3,0.2,0.5,0.3,0.9,0.4c1,0.2,2,0,2.8-0.6c1-0.7,1.8-1.8,3.1-1.3
		c0.7,0.3,1.2,1,1.2,1.8c-0.1,0.5-0.2,1-0.2,1.6c0.2,0.8,0.9,1.2,1.7,1.1c1.2-0.1,2.2-0.6,3.3,0.4c0.8,0.8,1,2,0.4,3
		c-0.2,0.2-0.4,0.4-0.5,0.7c-0.2,0.4,0.2,0.6,0.5,0.5c0.1,0,0.2-0.1,0.2-0.1c0.2-0.2,0.3-0.4,0.4-0.6c0.2-0.2,0.6-0.3,0.9-0.2
		c0.8,0.2,0.5,1.1,0.1,1.6c-0.7,0.7-1.7,1.1-2.7,1c-0.2,0-0.4,0.2-0.4,0.4c0,0.1,0,0.2,0.1,0.3c-0.1,0.1-0.1,0.2-0.1,0.4
		c0.1,0.9,0,1.8-0.4,2.5c-0.1,0.2-0.1,0.5,0.1,0.6c0,0,0,0,0,0c0,0.2,0.1,0.4,0.3,0.4c0,0,0.1,0,0.1,0c1.5-0.4,2.9-1.1,4.2-2.1
		c2.8-2.5,4.8-5.9,5.5-9.6c0.8-3.6-0.2-8.8-4.8-8.9c-0.2,0-0.4,0-0.5-0.1c-0.1-0.1-0.2-0.1-0.4-0.2c-2.3-2.1-5.6-2.8-8.5-1.9
		c-0.8,0.2-1.6,0.6-2.2,1.1c-1.1-1-2.7-1.3-4.2-0.8c-1.9,0.9-1.6,3.7-1,5.3C330.2,170.6,330.1,170.7,330,170.8z"></path><path class="st12" d="M341.7,237.4c0,0-6,18.8-18,22.7s-21.7-3.6-27.2-1.9s-51.2,7.4-63.2,5.1c0,0-2-12.9,0.8-15.6
		s52.8-12.9,57.6-13.6s26.7-4,26.7-4"></path></g><path class="st15" id="Bling" d="M154,253.2c0,0,0.6,9.5-6.8,10.1c0,0,6.3,2.6,7.3,7.6c0,0,0.8-7,7.1-7.7
	C157,262.2,153.8,257.9,154,253.2z"></path></svg>